<svg id="svg" version="1.1" xmlns="http://www.w3.org/2000/svg" xmlns:xlink="http://www.w3.org/1999/xlink" width="400" height="400" viewBox="0, 0, 400,400"><g id="svgg"><path id="path0" d="M185.596 35.926 C 185.594 36.077,184.201 36.239,182.502 36.287 C 180.802 36.335,178.059 36.586,176.406 36.845 C 174.753 37.105,173.130 37.351,172.800 37.392 C 170.416 37.688,168.832 38.127,169.025 38.440 C 169.153 38.647,168.463 38.779,167.445 38.740 C 166.450 38.702,165.403 38.859,165.118 39.088 C 164.632 39.480,163.769 39.675,160.100 40.225 C 159.275 40.348,158.240 40.598,157.800 40.779 C 157.360 40.960,156.190 41.327,155.200 41.593 C 154.210 41.860,153.087 42.240,152.705 42.439 C 152.323 42.638,151.744 42.800,151.418 42.800 C 151.091 42.800,150.189 43.157,149.412 43.593 C 148.635 44.029,148.000 44.279,148.000 44.147 C 148.000 44.016,147.595 44.166,147.100 44.481 C 146.605 44.796,145.120 45.385,143.800 45.791 C 142.480 46.196,140.770 46.923,140.000 47.406 C 139.230 47.888,138.150 48.424,137.600 48.597 C 137.050 48.769,136.171 49.245,135.646 49.655 C 135.121 50.065,134.356 50.400,133.946 50.400 C 133.536 50.400,133.200 50.580,133.200 50.800 C 133.200 51.020,132.868 51.200,132.462 51.200 C 132.056 51.200,131.398 51.560,131.000 52.000 C 130.602 52.440,130.127 52.800,129.946 52.800 C 129.628 52.800,123.610 56.705,123.200 57.177 C 123.090 57.304,122.305 57.766,121.456 58.204 C 120.607 58.642,119.823 59.225,119.713 59.500 C 119.604 59.775,119.264 60.000,118.957 60.000 C 118.651 60.000,118.400 60.189,118.400 60.419 C 118.400 60.874,116.395 62.767,115.890 62.787 C 115.540 62.802,108.678 69.600,109.014 69.600 C 109.134 69.600,108.999 69.851,108.716 70.158 C 108.432 70.465,108.065 70.634,107.900 70.534 C 107.735 70.435,107.600 70.536,107.600 70.760 C 107.600 70.985,106.745 72.052,105.700 73.132 C 102.796 76.134,102.355 76.768,102.105 78.305 C 101.896 79.593,101.952 79.706,102.702 79.510 C 103.490 79.304,103.541 79.497,103.770 83.547 C 104.031 88.161,104.624 92.682,105.222 94.628 C 105.430 95.304,105.600 96.191,105.600 96.600 C 105.600 98.040,108.551 106.449,110.723 111.200 C 116.821 124.536,139.406 146.981,139.155 139.455 C 139.139 138.985,139.425 137.070,139.790 135.200 C 140.155 133.330,140.550 131.036,140.667 130.101 C 140.784 129.167,140.997 128.474,141.140 128.562 C 141.283 128.650,141.441 128.156,141.492 127.464 C 141.542 126.772,141.767 126.144,141.992 126.069 C 142.216 125.995,142.400 125.408,142.400 124.767 C 142.400 124.125,142.580 123.600,142.800 123.600 C 143.020 123.600,143.200 123.060,143.200 122.400 C 143.200 121.740,143.380 121.200,143.600 121.200 C 143.820 121.200,144.000 120.859,144.000 120.443 C 144.000 120.026,144.267 119.583,144.593 119.458 C 144.931 119.328,145.085 118.965,144.950 118.615 C 144.821 118.277,144.870 118.000,145.061 118.000 C 145.252 118.000,145.644 117.621,145.933 117.158 C 146.369 116.461,146.368 116.363,145.930 116.589 C 145.638 116.738,145.805 116.503,146.300 116.066 C 146.795 115.629,147.200 115.076,147.200 114.836 C 147.200 114.596,147.362 114.400,147.561 114.400 C 147.759 114.400,148.097 113.905,148.311 113.300 C 148.889 111.664,157.600 102.399,157.600 103.419 C 157.600 103.536,158.005 103.247,158.500 102.778 C 159.773 101.571,162.376 99.827,163.871 99.180 C 164.570 98.878,165.055 98.488,164.948 98.315 C 164.840 98.142,165.105 98.000,165.536 98.000 C 165.966 98.000,167.345 97.460,168.600 96.800 C 169.855 96.140,171.133 95.600,171.441 95.600 C 171.748 95.600,172.001 95.465,172.003 95.300 C 172.008 94.857,174.021 94.000,175.056 94.000 C 175.549 94.000,176.064 93.820,176.200 93.600 C 176.336 93.380,176.977 93.200,177.624 93.200 C 178.271 93.200,178.800 93.020,178.800 92.800 C 178.800 92.578,179.867 92.400,181.200 92.400 C 182.533 92.400,183.600 92.222,183.600 92.000 C 183.600 91.776,184.707 91.600,186.120 91.600 C 187.506 91.600,188.822 91.418,189.045 91.195 C 189.561 90.679,207.113 90.633,207.744 91.147 C 207.995 91.351,209.460 91.535,210.999 91.556 C 212.538 91.576,213.858 91.775,213.932 91.997 C 214.006 92.219,215.042 92.400,216.233 92.400 C 217.425 92.400,218.400 92.580,218.400 92.800 C 218.400 93.020,219.030 93.200,219.800 93.200 C 220.570 93.200,221.200 93.380,221.200 93.600 C 221.200 93.820,221.740 94.000,222.400 94.000 C 223.060 94.000,223.600 94.180,223.600 94.400 C 223.600 94.620,223.850 94.800,224.156 94.800 C 225.118 94.800,234.730 100.002,236.281 101.363 C 236.555 101.603,237.254 102.160,237.833 102.600 C 239.744 104.053,242.000 106.162,242.000 106.496 C 242.000 106.677,242.644 107.390,243.431 108.081 C 244.901 109.371,249.783 116.059,250.818 118.200 C 251.138 118.860,251.579 119.532,251.799 119.694 C 252.020 119.856,252.060 119.991,251.890 119.994 C 251.719 119.997,251.868 120.558,252.220 121.239 C 252.573 121.921,252.931 122.843,253.017 123.289 C 253.103 123.735,253.452 124.525,253.793 125.046 C 254.134 125.566,254.398 126.100,254.380 126.232 C 254.202 127.523,255.485 127.574,287.851 127.587 C 323.822 127.602,321.287 127.826,320.433 124.700 C 320.178 123.765,319.897 122.640,319.808 122.200 C 319.472 120.541,319.370 120.188,319.106 119.766 C 318.956 119.527,318.788 118.651,318.732 117.821 C 318.676 116.990,318.425 116.231,318.175 116.135 C 317.924 116.039,317.796 115.553,317.891 115.056 C 317.991 114.537,317.794 113.927,317.432 113.627 C 317.084 113.338,316.800 112.685,316.800 112.175 C 316.800 111.665,316.620 111.136,316.400 111.000 C 316.180 110.864,316.000 110.234,316.000 109.600 C 316.000 108.966,315.820 108.336,315.600 108.200 C 315.380 108.064,315.200 107.601,315.200 107.172 C 315.200 106.743,314.817 105.538,314.350 104.496 C 312.551 100.485,310.187 95.794,309.900 95.667 C 309.735 95.593,309.600 95.285,309.600 94.981 C 309.600 94.461,307.900 91.118,307.150 90.163 C 306.961 89.923,306.940 89.593,307.103 89.430 C 307.267 89.267,307.151 89.193,306.846 89.267 C 306.323 89.393,304.659 86.859,303.584 84.300 C 303.330 83.695,302.971 83.200,302.788 83.200 C 302.604 83.200,302.352 82.885,302.228 82.500 C 302.104 82.115,301.462 81.225,300.801 80.522 C 300.140 79.819,299.600 79.043,299.600 78.798 C 299.600 78.553,299.441 78.451,299.246 78.571 C 299.052 78.691,298.671 78.254,298.400 77.600 C 298.129 76.946,297.748 76.509,297.554 76.629 C 297.359 76.749,297.200 76.477,297.200 76.024 C 297.200 75.571,297.065 75.200,296.900 75.200 C 296.467 75.200,293.200 72.157,293.200 71.753 C 293.200 71.402,285.709 64.000,285.353 64.000 C 285.129 64.000,282.269 61.800,281.014 60.662 C 280.566 60.256,279.390 59.367,278.400 58.685 C 277.410 58.004,276.540 57.301,276.467 57.123 C 276.393 56.945,276.078 56.800,275.767 56.800 C 275.455 56.800,275.200 56.654,275.200 56.475 C 275.200 56.296,274.570 55.902,273.800 55.600 C 273.030 55.298,272.400 54.929,272.400 54.781 C 272.400 54.633,271.545 54.081,270.500 53.556 C 269.455 53.030,268.502 52.470,268.383 52.311 C 267.960 51.746,260.261 48.039,259.933 48.241 C 259.750 48.355,259.600 48.257,259.600 48.024 C 259.600 47.791,259.240 47.600,258.800 47.600 C 258.360 47.600,258.000 47.441,258.000 47.247 C 258.000 47.052,257.685 46.789,257.300 46.661 C 256.915 46.533,255.880 46.155,255.000 45.820 C 254.120 45.486,253.079 45.209,252.687 45.206 C 252.296 45.203,251.876 44.941,251.754 44.625 C 251.633 44.309,251.277 44.149,250.964 44.269 C 250.650 44.390,249.940 44.191,249.386 43.827 C 248.831 43.464,248.175 43.292,247.927 43.445 C 247.652 43.615,247.588 43.544,247.762 43.262 C 247.954 42.950,247.641 42.800,246.800 42.800 C 246.070 42.800,245.655 42.634,245.800 42.400 C 245.946 42.164,245.497 42.000,244.704 42.000 C 243.965 42.000,243.189 41.838,242.980 41.641 C 242.771 41.444,241.880 41.180,241.000 41.056 C 237.522 40.566,236.400 40.298,236.400 39.956 C 236.400 39.760,235.668 39.600,234.774 39.600 C 233.879 39.600,232.772 39.399,232.313 39.154 C 231.855 38.908,230.752 38.717,229.863 38.730 C 228.973 38.742,228.056 38.633,227.823 38.487 C 227.329 38.178,226.528 37.965,225.380 37.837 C 224.929 37.787,224.362 37.624,224.120 37.474 C 223.878 37.325,223.257 37.201,222.740 37.199 C 221.392 37.195,219.821 36.980,219.380 36.739 C 219.171 36.625,217.749 36.495,216.221 36.449 C 214.692 36.404,213.252 36.216,213.021 36.033 C 212.519 35.635,185.602 35.530,185.596 35.926 M199.944 36.649 C 201.957 37.051,200.957 37.600,198.209 37.600 C 195.279 37.600,194.028 37.282,194.866 36.750 C 195.497 36.351,198.185 36.297,199.944 36.649 M187.130 37.809 C 187.418 38.069,181.234 38.468,180.826 38.216 C 179.731 37.539,181.064 37.205,183.927 37.440 C 185.617 37.579,187.058 37.745,187.130 37.809 M215.393 37.588 C 215.785 38.223,213.748 38.513,211.293 38.171 C 209.081 37.864,209.050 37.843,210.400 37.579 C 212.572 37.154,215.128 37.159,215.393 37.588 M233.100 41.076 C 232.715 41.176,232.085 41.176,231.700 41.076 C 231.315 40.975,231.630 40.893,232.400 40.893 C 233.170 40.893,233.485 40.975,233.100 41.076 M162.200 41.600 C 162.867 41.886,162.779 41.948,161.676 41.972 C 160.890 41.989,160.453 41.838,160.600 41.600 C 160.888 41.134,161.115 41.134,162.200 41.600 M236.800 41.843 C 236.800 41.929,236.305 41.997,235.700 41.994 C 234.899 41.989,234.753 41.891,235.164 41.631 C 235.673 41.308,236.800 41.454,236.800 41.843 M159.134 42.351 C 159.549 42.614,159.505 42.731,158.934 42.879 C 158.039 43.111,157.200 42.863,157.200 42.367 C 157.200 41.909,158.420 41.898,159.134 42.351 M240.700 42.500 C 240.608 42.775,240.323 42.982,240.067 42.960 C 239.810 42.938,239.195 42.890,238.700 42.854 C 237.966 42.800,237.910 42.716,238.400 42.400 C 239.281 41.831,240.900 41.901,240.700 42.500 M156.000 43.200 C 156.468 43.502,156.357 43.589,155.500 43.594 C 154.895 43.597,154.400 43.420,154.400 43.200 C 154.400 42.694,155.217 42.694,156.000 43.200 M243.600 43.200 C 243.600 43.420,243.139 43.600,242.576 43.600 C 241.996 43.600,241.660 43.427,241.800 43.200 C 241.936 42.980,242.397 42.800,242.824 42.800 C 243.251 42.800,243.600 42.980,243.600 43.200 M143.600 48.000 C 143.600 48.220,143.229 48.400,142.776 48.400 C 142.323 48.400,142.064 48.220,142.200 48.000 C 142.336 47.780,142.707 47.600,143.024 47.600 C 143.341 47.600,143.600 47.780,143.600 48.000 M258.400 48.800 C 258.400 49.020,258.130 49.200,257.800 49.200 C 257.470 49.200,257.200 49.020,257.200 48.800 C 257.200 48.580,257.470 48.400,257.800 48.400 C 258.130 48.400,258.400 48.580,258.400 48.800 M132.580 53.555 C 131.797 54.286,130.219 54.564,130.842 53.861 C 131.149 53.514,131.751 53.224,132.180 53.215 C 132.652 53.206,132.810 53.340,132.580 53.555 M284.267 65.467 C 284.141 65.592,283.768 65.425,283.438 65.095 C 283.108 64.765,282.941 64.392,283.067 64.267 C 283.192 64.141,283.565 64.308,283.895 64.638 C 284.225 64.968,284.392 65.341,284.267 65.467 M290.695 70.566 C 291.157 71.097,291.444 71.622,291.333 71.733 C 291.086 71.981,289.200 70.384,289.200 69.928 C 289.200 69.317,289.852 69.596,290.695 70.566 M105.026 76.771 C 104.682 77.152,104.385 77.809,104.366 78.231 C 104.343 78.736,104.211 78.599,103.982 77.832 C 103.709 76.917,103.780 76.556,104.312 76.168 C 105.255 75.478,105.788 75.929,105.026 76.771 M296.972 77.645 C 296.646 78.172,296.114 78.075,295.873 77.445 C 295.724 77.057,295.889 76.951,296.425 77.091 C 296.846 77.201,297.092 77.450,296.972 77.645 M190.400 89.600 C 190.400 89.820,189.770 90.000,189.000 90.000 C 188.230 90.000,187.600 89.820,187.600 89.600 C 187.600 89.380,188.230 89.200,189.000 89.200 C 189.770 89.200,190.400 89.380,190.400 89.600 M210.000 89.600 C 210.000 89.820,209.190 90.000,208.200 90.000 C 207.210 90.000,206.400 89.820,206.400 89.600 C 206.400 89.380,207.210 89.200,208.200 89.200 C 209.190 89.200,210.000 89.380,210.000 89.600 M184.400 90.400 C 184.400 90.910,182.390 90.910,181.600 90.400 C 181.161 90.116,181.455 90.011,182.700 90.006 C 183.635 90.003,184.400 90.180,184.400 90.400 M215.800 90.400 C 215.664 90.620,214.933 90.800,214.176 90.800 C 213.419 90.800,212.800 90.620,212.800 90.400 C 212.800 90.180,213.531 90.000,214.424 90.000 C 215.404 90.000,215.949 90.158,215.800 90.400 M179.800 91.200 C 179.664 91.420,179.203 91.600,178.776 91.600 C 178.349 91.600,178.000 91.420,178.000 91.200 C 178.000 90.980,178.461 90.800,179.024 90.800 C 179.604 90.800,179.940 90.973,179.800 91.200 M219.400 91.200 C 219.264 91.420,218.713 91.600,218.176 91.600 C 217.639 91.600,217.200 91.420,217.200 91.200 C 217.200 90.980,217.751 90.800,218.424 90.800 C 219.137 90.800,219.544 90.967,219.400 91.200 M308.000 94.200 C 308.000 94.530,307.820 94.800,307.600 94.800 C 307.380 94.800,307.200 94.530,307.200 94.200 C 307.200 93.870,307.380 93.600,307.600 93.600 C 307.820 93.600,308.000 93.870,308.000 94.200 M157.200 101.800 C 156.917 102.141,156.596 102.329,156.486 102.219 C 156.376 102.109,156.517 101.741,156.800 101.400 C 157.083 101.059,157.404 100.871,157.514 100.981 C 157.624 101.091,157.483 101.459,157.200 101.800 M239.600 102.098 C 239.600 102.321,239.335 102.278,239.000 102.000 C 238.670 101.726,238.400 101.322,238.400 101.102 C 238.400 100.879,238.665 100.922,239.000 101.200 C 239.330 101.474,239.600 101.878,239.600 102.098 M312.507 104.034 C 312.341 104.668,312.208 104.740,311.951 104.334 C 311.458 103.556,311.525 103.200,312.163 103.200 C 312.536 103.200,312.652 103.481,312.507 104.034 M313.346 106.198 C 313.219 106.526,312.955 106.696,312.758 106.574 C 312.193 106.225,312.340 105.600,312.987 105.600 C 313.344 105.600,313.485 105.835,313.346 106.198 M318.000 120.280 C 318.000 121.084,317.884 121.244,317.547 120.907 C 317.298 120.658,317.202 120.172,317.334 119.827 C 317.701 118.873,318.000 119.077,318.000 120.280 M318.876 124.200 C 318.786 124.970,318.498 125.600,318.237 125.600 C 317.928 125.600,317.818 125.107,317.924 124.200 C 318.014 123.430,318.302 122.800,318.563 122.800 C 318.872 122.800,318.982 123.293,318.876 124.200 M140.800 125.600 C 140.800 126.040,140.620 126.400,140.400 126.400 C 140.180 126.400,140.000 126.040,140.000 125.600 C 140.000 125.160,140.180 124.800,140.400 124.800 C 140.620 124.800,140.800 125.160,140.800 125.600 M267.439 253.856 C 267.070 260.609,266.747 263.614,266.411 263.407 C 266.143 263.241,265.587 264.984,265.391 266.600 C 265.365 266.820,265.041 267.697,264.672 268.549 C 264.302 269.401,264.000 270.262,264.000 270.463 C 264.000 270.664,263.685 271.310,263.300 271.899 C 262.756 272.730,262.734 272.887,263.200 272.600 C 263.666 272.313,263.644 272.470,263.100 273.301 C 262.715 273.890,262.400 274.648,262.400 274.986 C 262.400 275.324,262.240 275.600,262.043 275.600 C 261.847 275.600,261.582 276.019,261.453 276.532 C 261.324 277.044,260.587 278.259,259.813 279.232 C 259.040 280.204,258.406 281.225,258.404 281.500 C 258.402 281.775,258.220 282.000,258.000 282.000 C 257.780 282.000,257.600 282.270,257.600 282.600 C 257.600 282.930,257.420 283.200,257.200 283.200 C 256.980 283.200,256.800 283.356,256.800 283.547 C 256.800 283.986,250.325 290.390,249.337 290.927 C 248.932 291.148,248.103 291.839,247.497 292.464 C 246.890 293.089,246.215 293.600,245.997 293.600 C 245.778 293.600,245.600 293.746,245.600 293.925 C 245.600 294.104,244.970 294.498,244.200 294.800 C 243.430 295.102,242.800 295.467,242.800 295.611 C 242.800 295.754,242.035 296.113,241.100 296.408 C 240.165 296.703,239.183 297.107,238.918 297.306 C 238.652 297.506,238.247 297.553,238.018 297.411 C 237.788 297.269,237.600 297.348,237.600 297.586 C 237.600 297.825,237.105 298.199,236.500 298.418 C 235.895 298.637,235.040 298.970,234.600 299.158 C 232.281 300.149,231.477 300.400,230.615 300.400 C 230.093 300.400,229.593 300.621,229.503 300.890 C 229.409 301.173,228.790 301.339,228.041 301.282 C 227.238 301.221,226.839 301.339,226.995 301.591 C 227.155 301.851,226.444 302.000,225.050 302.000 C 223.841 302.000,222.380 302.179,221.804 302.399 C 221.227 302.618,219.686 302.821,218.378 302.851 C 217.070 302.880,216.000 303.057,216.000 303.242 C 216.000 303.428,215.550 303.409,215.000 303.200 C 214.408 302.975,214.000 302.969,214.000 303.185 C 214.000 303.386,213.685 303.553,213.300 303.557 C 204.902 303.638,199.804 303.543,199.625 303.302 C 199.501 303.136,197.763 302.977,195.763 302.948 C 193.763 302.919,191.783 302.719,191.363 302.504 C 190.943 302.288,189.729 302.085,188.665 302.051 C 187.601 302.018,186.371 301.798,185.931 301.563 C 185.491 301.328,185.034 301.233,184.915 301.352 C 184.796 301.471,184.190 301.305,183.569 300.984 C 182.948 300.663,182.060 300.400,181.595 300.400 C 181.131 300.400,179.817 299.971,178.675 299.446 C 177.534 298.921,175.745 298.176,174.700 297.791 C 173.655 297.406,172.800 296.936,172.800 296.746 C 172.800 296.556,172.665 296.437,172.500 296.482 C 171.957 296.630,169.189 295.542,169.369 295.251 C 169.465 295.094,169.168 294.938,168.708 294.903 C 168.248 294.868,167.724 294.606,167.542 294.320 C 167.361 294.034,167.209 293.948,167.206 294.129 C 167.203 294.309,166.959 294.219,166.663 293.929 C 166.368 293.638,165.530 292.950,164.800 292.400 C 164.070 291.850,163.245 291.175,162.965 290.900 C 162.686 290.625,162.286 290.400,162.077 290.400 C 161.633 290.400,158.867 287.723,158.012 286.465 C 157.688 285.989,157.196 285.600,156.918 285.600 C 156.639 285.600,156.004 284.994,155.506 284.254 C 155.008 283.513,153.940 281.913,153.133 280.698 C 152.326 279.482,151.479 278.372,151.250 278.231 C 150.708 277.896,147.200 270.637,147.200 269.850 C 147.200 269.519,147.045 269.151,146.855 269.034 C 146.665 268.917,146.293 268.051,146.027 267.110 C 144.994 263.444,148.778 263.813,111.046 263.699 C 78.702 263.600,77.706 263.620,77.036 264.361 C 76.311 265.162,76.705 267.748,77.770 269.177 C 78.086 269.601,78.077 269.680,77.734 269.474 C 77.284 269.205,77.373 269.643,78.329 272.400 C 78.444 272.730,78.572 273.360,78.614 273.800 C 78.747 275.170,80.489 281.380,80.854 281.780 C 81.044 281.989,81.200 282.574,81.200 283.080 C 81.200 283.586,81.410 284.000,81.667 284.000 C 81.923 284.000,82.024 284.110,81.889 284.244 C 81.755 284.378,81.995 285.140,82.423 285.938 C 82.850 286.736,83.200 287.618,83.200 287.900 C 83.200 288.181,83.365 288.723,83.567 289.105 C 84.415 290.708,85.600 293.629,85.600 294.116 C 85.600 294.404,85.771 294.811,85.981 295.021 C 86.463 295.503,88.329 298.773,88.650 299.700 C 88.784 300.085,89.052 300.400,89.247 300.400 C 89.441 300.400,89.600 300.653,89.600 300.962 C 89.600 301.719,91.265 304.800,91.674 304.800 C 91.853 304.800,92.000 305.171,92.000 305.624 C 92.000 306.077,92.142 306.359,92.316 306.252 C 92.489 306.145,93.054 306.854,93.571 307.828 C 94.088 308.803,94.676 309.600,94.876 309.600 C 95.077 309.600,95.430 310.140,95.660 310.800 C 95.890 311.460,96.271 312.000,96.506 312.000 C 96.741 312.000,96.814 312.119,96.668 312.265 C 96.522 312.411,97.302 313.406,98.402 314.477 C 99.501 315.547,100.400 316.583,100.400 316.778 C 100.400 317.330,106.853 323.814,107.280 323.690 C 107.489 323.630,107.552 323.754,107.421 323.966 C 107.141 324.419,108.928 326.202,110.500 327.036 C 111.105 327.358,111.600 327.886,111.600 328.210 C 111.600 328.535,111.745 328.800,111.923 328.800 C 112.254 328.800,113.882 330.055,116.382 332.239 C 118.687 334.254,121.275 336.001,121.630 335.782 C 121.811 335.669,122.158 335.948,122.400 336.400 C 122.642 336.852,123.011 337.117,123.220 336.988 C 123.429 336.858,123.600 336.943,123.600 337.176 C 123.600 337.409,123.787 337.600,124.016 337.600 C 124.465 337.600,126.445 338.906,127.900 340.163 C 128.395 340.590,128.800 340.816,128.800 340.665 C 128.800 340.514,129.475 340.807,130.300 341.317 C 131.125 341.827,132.835 342.742,134.100 343.351 C 135.365 343.960,136.400 344.615,136.400 344.806 C 136.400 344.998,136.765 345.084,137.211 344.998 C 137.657 344.912,137.932 344.986,137.823 345.162 C 137.569 345.574,139.540 346.484,140.030 346.181 C 140.233 346.056,140.400 346.154,140.400 346.400 C 140.400 346.646,140.580 346.736,140.800 346.600 C 141.020 346.464,141.200 346.573,141.200 346.843 C 141.200 347.113,141.320 347.213,141.468 347.066 C 141.615 346.919,142.096 347.114,142.536 347.499 C 142.977 347.885,143.209 347.980,143.052 347.711 C 142.806 347.290,143.773 347.678,146.895 349.250 C 147.277 349.443,147.864 349.600,148.200 349.600 C 148.536 349.600,149.123 349.761,149.505 349.957 C 150.827 350.636,152.603 351.333,153.377 351.475 C 153.805 351.554,154.688 351.884,155.339 352.209 C 155.990 352.534,156.945 352.800,157.461 352.800 C 157.978 352.800,158.400 352.974,158.400 353.187 C 158.400 353.401,158.639 353.483,158.931 353.371 C 159.223 353.259,159.988 353.369,160.631 353.616 C 161.274 353.863,163.240 354.338,165.000 354.671 C 172.051 356.008,172.890 356.206,174.000 356.800 C 174.628 357.136,174.992 357.138,175.390 356.808 C 175.761 356.500,176.009 356.491,176.188 356.781 C 176.331 357.011,176.977 357.200,177.624 357.200 C 178.271 357.200,178.800 357.350,178.800 357.533 C 178.800 357.907,178.658 357.890,182.907 358.011 C 184.616 358.060,186.112 358.257,186.231 358.450 C 186.350 358.642,188.946 358.800,192.000 358.800 C 195.054 358.800,197.642 358.944,197.750 359.119 C 198.036 359.582,214.717 359.685,216.172 359.232 C 217.181 358.919,220.874 358.632,227.500 358.353 C 227.995 358.332,228.400 358.199,228.400 358.058 C 228.400 357.916,229.561 357.814,230.980 357.830 C 232.400 357.847,233.469 357.712,233.357 357.530 C 233.245 357.349,234.033 357.200,235.110 357.200 C 236.186 357.200,237.190 357.077,237.341 356.926 C 237.866 356.401,240.353 355.713,240.676 356.004 C 240.854 356.164,241.630 356.019,242.400 355.680 C 243.170 355.341,244.160 355.027,244.600 354.982 C 245.040 354.937,246.660 354.594,248.200 354.220 C 249.740 353.846,251.270 353.481,251.600 353.408 C 252.654 353.177,260.192 350.293,260.400 350.042 C 260.510 349.909,260.780 349.784,261.000 349.765 C 261.931 349.684,265.099 348.583,266.312 347.919 C 267.034 347.523,267.989 347.200,268.436 347.200 C 268.882 347.200,269.136 347.020,269.000 346.800 C 268.864 346.580,269.134 346.400,269.600 346.400 C 270.066 346.400,270.337 346.222,270.203 346.005 C 270.063 345.778,270.223 345.711,270.576 345.846 C 270.940 345.986,271.294 345.819,271.439 345.442 C 271.575 345.089,271.936 344.800,272.243 344.800 C 272.549 344.800,272.800 344.620,272.800 344.400 C 272.800 344.180,273.250 344.000,273.800 344.000 C 274.350 344.000,274.800 343.820,274.800 343.600 C 274.800 343.380,275.126 343.200,275.525 343.200 C 275.923 343.200,276.598 342.885,277.025 342.500 C 277.451 342.115,278.340 341.535,279.000 341.210 C 279.660 340.886,280.719 340.202,281.353 339.691 C 281.988 339.180,283.158 338.424,283.953 338.010 C 284.749 337.597,285.947 336.751,286.615 336.129 C 287.284 335.508,287.914 334.992,288.015 334.982 C 288.273 334.956,289.857 333.643,291.492 332.100 C 292.249 331.385,292.997 330.800,293.155 330.800 C 293.484 330.800,302.902 321.015,303.765 319.776 C 304.719 318.406,303.728 305.363,302.035 297.000 C 301.812 295.900,301.521 294.370,301.388 293.600 C 301.255 292.830,300.998 291.840,300.818 291.400 C 300.638 290.960,300.270 289.790,300.000 288.800 C 299.730 287.810,299.324 286.550,299.098 286.000 C 293.916 273.375,288.503 265.605,279.172 257.393 C 276.011 254.612,269.979 250.376,268.860 250.152 L 267.655 249.911 267.439 253.856 M269.356 257.880 C 269.114 259.836,268.800 260.091,268.800 258.333 C 268.800 257.135,269.042 256.400,269.437 256.400 C 269.493 256.400,269.457 257.066,269.356 257.880 M143.508 265.125 C 143.715 265.744,78.584 265.821,78.201 265.202 C 78.040 264.940,88.986 264.770,110.278 264.702 C 147.609 264.584,143.310 264.529,143.508 265.125 M290.800 271.390 C 290.800 272.015,289.958 271.869,289.590 271.181 C 289.177 270.409,289.208 270.376,289.970 270.784 C 290.426 271.028,290.800 271.301,290.800 271.390 M265.600 272.600 C 265.600 272.930,265.420 273.200,265.200 273.200 C 264.980 273.200,264.800 272.930,264.800 272.600 C 264.800 272.270,264.980 272.000,265.200 272.000 C 265.420 272.000,265.600 272.270,265.600 272.600 M81.200 275.600 C 81.200 276.040,81.020 276.400,80.800 276.400 C 80.580 276.400,80.400 276.040,80.400 275.600 C 80.400 275.160,80.580 274.800,80.800 274.800 C 81.020 274.800,81.200 275.160,81.200 275.600 M82.000 278.600 C 82.000 279.150,81.820 279.600,81.600 279.600 C 81.380 279.600,81.200 279.150,81.200 278.600 C 81.200 278.050,81.380 277.600,81.600 277.600 C 81.820 277.600,82.000 278.050,82.000 278.600 M82.800 281.400 C 82.800 281.730,82.620 282.000,82.400 282.000 C 82.180 282.000,82.000 281.730,82.000 281.400 C 82.000 281.070,82.180 280.800,82.400 280.800 C 82.620 280.800,82.800 281.070,82.800 281.400 M153.021 283.512 C 152.805 283.728,151.600 282.588,151.600 282.167 C 151.600 282.007,151.961 282.203,152.402 282.602 C 152.844 283.002,153.122 283.411,153.021 283.512 M296.906 283.039 C 297.266 283.400,296.770 284.429,296.358 284.174 C 296.161 284.052,296.000 283.693,296.000 283.376 C 296.000 282.787,296.477 282.610,296.906 283.039 M255.200 288.200 C 254.926 288.530,254.522 288.800,254.302 288.800 C 254.079 288.800,254.122 288.535,254.400 288.200 C 254.674 287.870,255.078 287.600,255.298 287.600 C 255.521 287.600,255.478 287.865,255.200 288.200 M86.480 291.280 C 86.107 291.653,86.000 291.547,86.000 290.800 C 86.000 290.053,86.107 289.947,86.480 290.320 C 86.853 290.693,86.853 290.907,86.480 291.280 M87.600 293.024 C 87.600 293.613,87.123 293.790,86.694 293.361 C 86.334 293.000,86.830 291.971,87.242 292.226 C 87.439 292.348,87.600 292.707,87.600 293.024 M249.410 293.048 C 249.053 293.404,248.641 293.574,248.493 293.426 C 248.344 293.278,248.488 292.989,248.812 292.784 C 249.757 292.187,250.113 292.344,249.410 293.048 M173.600 298.800 C 173.600 299.020,173.341 299.200,173.024 299.200 C 172.707 299.200,172.336 299.020,172.200 298.800 C 172.064 298.580,172.323 298.400,172.776 298.400 C 173.229 298.400,173.600 298.580,173.600 298.800 M240.400 298.800 C 240.400 299.020,240.130 299.200,239.800 299.200 C 239.470 299.200,239.200 299.020,239.200 298.800 C 239.200 298.580,239.470 298.400,239.800 298.400 C 240.130 298.400,240.400 298.580,240.400 298.800 M301.600 300.024 C 301.600 301.004,301.442 301.549,301.200 301.400 C 300.980 301.264,300.800 300.533,300.800 299.776 C 300.800 299.019,300.980 298.400,301.200 298.400 C 301.420 298.400,301.600 299.131,301.600 300.024 M92.429 302.400 C 92.633 302.400,92.800 302.704,92.800 303.076 C 92.800 303.666,92.725 303.654,92.213 302.976 C 91.890 302.549,91.641 301.930,91.659 301.600 C 91.683 301.180,91.748 301.210,91.876 301.700 C 91.976 302.085,92.225 302.400,92.429 302.400 M230.600 302.800 C 230.464 303.020,230.093 303.200,229.776 303.200 C 229.459 303.200,229.200 303.020,229.200 302.800 C 229.200 302.580,229.571 302.400,230.024 302.400 C 230.477 302.400,230.736 302.580,230.600 302.800 M187.367 303.043 C 188.404 303.441,188.086 304.000,186.824 304.000 C 185.483 304.000,184.833 303.354,185.895 303.077 C 186.283 302.976,186.630 302.872,186.667 302.846 C 186.704 302.821,187.019 302.909,187.367 303.043 M226.965 303.042 C 227.844 303.379,227.348 304.000,226.200 304.000 C 225.130 304.000,224.527 303.376,225.298 303.066 C 226.021 302.774,226.259 302.771,226.965 303.042 M302.400 306.224 C 302.400 308.137,302.253 309.156,302.000 309.000 C 301.278 308.554,301.524 303.200,302.267 303.200 C 302.340 303.200,302.400 304.561,302.400 306.224 M193.302 304.200 C 193.428 304.715,191.412 304.947,190.052 304.574 L 189.000 304.285 190.000 304.021 C 191.443 303.641,193.187 303.735,193.302 304.200 M223.000 304.023 L 223.800 304.056 223.000 304.400 C 221.649 304.981,220.400 304.862,220.400 304.153 C 220.400 303.678,220.638 303.571,221.300 303.748 C 221.795 303.881,222.560 304.004,223.000 304.023 M213.800 304.730 C 214.608 304.912,213.693 305.066,211.000 305.203 C 206.025 305.456,198.103 305.158,199.800 304.782 C 201.397 304.428,212.278 304.388,213.800 304.730 M303.200 317.418 C 303.200 318.455,301.407 320.659,301.043 320.070 C 300.933 319.891,301.193 319.493,301.621 319.185 C 302.071 318.860,302.400 318.154,302.400 317.512 C 302.400 316.900,302.580 316.400,302.800 316.400 C 303.020 316.400,303.200 316.858,303.200 317.418 M115.208 329.010 C 115.981 329.941,115.429 330.117,114.602 329.202 C 114.203 328.761,114.062 328.400,114.289 328.400 C 114.516 328.400,114.930 328.674,115.208 329.010 M291.780 329.709 C 291.565 330.269,290.000 331.361,290.000 330.950 C 290.000 330.704,291.589 329.200,291.849 329.200 C 291.918 329.200,291.887 329.429,291.780 329.709 M278.400 340.400 C 278.400 340.620,278.130 340.800,277.800 340.800 C 277.470 340.800,277.200 340.620,277.200 340.400 C 277.200 340.180,277.470 340.000,277.800 340.000 C 278.130 340.000,278.400 340.180,278.400 340.400 M143.383 345.572 C 143.679 346.051,142.926 346.525,142.393 346.196 C 141.946 345.919,142.240 345.200,142.800 345.200 C 142.994 345.200,143.256 345.368,143.383 345.572 M145.553 346.829 C 144.946 347.204,144.291 346.900,144.606 346.390 C 144.727 346.195,145.105 346.142,145.446 346.273 C 145.931 346.459,145.954 346.581,145.553 346.829 M158.712 351.265 C 158.485 351.944,157.200 352.029,157.200 351.365 C 157.200 351.054,157.575 350.800,158.033 350.800 C 158.492 350.800,158.797 351.009,158.712 351.265 M253.200 351.200 C 253.200 351.420,252.829 351.600,252.376 351.600 C 251.923 351.600,251.664 351.420,251.800 351.200 C 251.936 350.980,252.307 350.800,252.624 350.800 C 252.941 350.800,253.200 350.980,253.200 351.200 M162.400 352.000 C 162.400 352.220,161.849 352.400,161.176 352.400 C 160.463 352.400,160.056 352.233,160.200 352.000 C 160.336 351.780,160.887 351.600,161.424 351.600 C 161.961 351.600,162.400 351.780,162.400 352.000 M250.800 352.000 C 250.800 352.220,250.249 352.400,249.576 352.400 C 248.863 352.400,248.456 352.233,248.600 352.000 C 248.736 351.780,249.287 351.600,249.824 351.600 C 250.361 351.600,250.800 351.780,250.800 352.000 M165.600 352.800 C 165.600 353.020,165.330 353.200,165.000 353.200 C 164.670 353.200,164.400 353.020,164.400 352.800 C 164.400 352.580,164.670 352.400,165.000 352.400 C 165.330 352.400,165.600 352.580,165.600 352.800 M246.800 352.800 C 246.800 353.020,246.530 353.200,246.200 353.200 C 245.870 353.200,245.600 353.020,245.600 352.800 C 245.600 352.580,245.870 352.400,246.200 352.400 C 246.530 352.400,246.800 352.580,246.800 352.800 M189.200 356.800 C 187.735 357.269,183.600 357.269,183.600 356.800 C 183.600 356.562,184.940 356.416,186.900 356.440 C 189.166 356.467,189.887 356.580,189.200 356.800 M228.800 356.800 C 228.800 357.313,224.793 357.313,224.000 356.800 C 223.580 356.528,224.209 356.410,226.100 356.406 C 227.637 356.403,228.800 356.572,228.800 356.800 M220.000 357.593 C 220.000 357.843,215.041 357.987,206.400 357.989 C 197.700 357.990,192.800 357.849,192.800 357.596 C 192.800 357.343,197.701 357.200,206.400 357.200 C 215.042 357.200,220.000 357.343,220.000 357.593 " stroke="none" fill="#f4746c" fill-rule="evenodd"></path><path id="path1" d="M168.600 37.600 C 168.464 37.820,167.665 38.000,166.825 38.000 C 165.977 38.000,165.083 38.259,164.815 38.582 C 164.401 39.081,164.515 39.111,165.623 38.793 C 166.333 38.590,167.057 38.512,167.233 38.620 C 167.408 38.729,168.148 38.454,168.876 38.010 C 169.703 37.506,169.946 37.202,169.524 37.201 C 169.152 37.201,168.736 37.380,168.600 37.600 M228.720 38.342 C 229.498 38.835,232.903 38.890,232.603 38.404 C 232.465 38.182,231.418 38.003,230.276 38.006 C 229.031 38.010,228.408 38.144,228.720 38.342 M148.600 43.200 C 148.464 43.420,148.623 43.600,148.953 43.600 C 149.283 43.600,149.664 43.420,149.800 43.200 C 149.936 42.980,149.777 42.800,149.447 42.800 C 149.117 42.800,148.736 42.980,148.600 43.200 M262.800 48.897 C 263.570 49.383,264.260 49.919,264.333 50.090 C 264.407 50.260,264.654 50.400,264.882 50.400 C 265.557 50.400,264.438 49.278,263.096 48.608 C 261.330 47.727,261.179 47.874,262.800 48.897 M125.260 55.042 C 124.962 55.378,124.799 55.732,124.895 55.829 C 124.992 55.926,125.398 55.644,125.798 55.202 C 126.197 54.761,126.361 54.407,126.162 54.415 C 125.963 54.424,125.557 54.705,125.260 55.042 M280.003 59.500 C 280.007 59.973,282.789 61.745,283.076 61.458 C 283.217 61.316,283.132 61.200,282.885 61.200 C 282.638 61.200,281.986 60.750,281.436 60.200 C 280.410 59.174,279.998 58.973,280.003 59.500 M287.000 65.200 C 287.859 66.080,288.652 66.800,288.762 66.800 C 288.872 66.800,288.259 66.080,287.400 65.200 C 286.541 64.320,285.748 63.600,285.638 63.600 C 285.528 63.600,286.141 64.320,287.000 65.200 M101.060 79.813 C 101.203 80.186,100.877 80.784,100.226 81.344 C 99.637 81.850,98.870 82.789,98.521 83.432 C 97.058 86.125,96.400 87.598,96.400 88.181 C 96.400 88.521,96.220 88.800,96.000 88.800 C 95.780 88.800,95.600 89.160,95.600 89.600 C 95.600 90.040,95.420 90.400,95.200 90.400 C 94.980 90.400,94.800 90.695,94.800 91.056 C 94.800 91.417,94.485 91.953,94.100 92.248 C 93.536 92.680,93.504 92.853,93.934 93.137 C 94.350 93.412,94.303 93.532,93.717 93.685 C 93.248 93.808,92.772 94.539,92.445 95.641 C 92.157 96.608,91.760 97.713,91.561 98.095 C 91.362 98.477,91.187 99.467,91.172 100.295 C 91.149 101.501,91.075 101.641,90.800 101.000 C 90.534 100.380,90.450 100.583,90.428 101.900 C 90.413 102.835,90.220 103.600,90.000 103.600 C 89.780 103.600,89.600 104.299,89.600 105.153 C 89.600 106.370,89.427 106.752,88.800 106.916 C 88.187 107.076,88.000 107.462,88.000 108.563 C 88.000 109.353,87.820 110.000,87.600 110.000 C 87.380 110.000,87.200 110.990,87.200 112.200 C 87.200 113.410,87.020 114.400,86.800 114.400 C 86.571 114.400,86.400 115.600,86.400 117.200 C 86.400 118.800,86.229 120.000,86.000 120.000 C 85.742 120.000,85.600 124.267,85.600 132.000 C 85.600 139.733,85.742 144.000,86.000 144.000 C 86.235 144.000,86.400 145.400,86.400 147.400 C 86.400 149.400,86.565 150.800,86.800 150.800 C 87.020 150.800,87.200 151.599,87.200 152.576 C 87.200 153.553,87.380 154.464,87.600 154.600 C 87.820 154.736,88.000 155.555,88.000 156.420 C 88.000 157.560,88.220 158.131,88.800 158.493 C 89.286 158.796,89.600 159.426,89.600 160.096 C 89.600 160.703,89.780 161.200,90.000 161.200 C 90.220 161.200,90.400 161.740,90.400 162.400 C 90.400 163.060,90.580 163.600,90.800 163.600 C 91.020 163.600,91.200 164.140,91.200 164.800 C 91.200 165.460,91.380 166.000,91.600 166.000 C 91.820 166.000,92.016 166.495,92.036 167.100 C 92.056 167.705,92.589 169.100,93.219 170.200 C 93.850 171.300,94.686 172.875,95.078 173.700 C 95.469 174.525,95.926 175.200,96.094 175.200 C 96.262 175.200,96.400 175.560,96.400 176.000 C 96.400 176.440,96.553 176.800,96.739 176.800 C 96.926 176.800,97.403 177.520,97.800 178.400 C 98.197 179.280,98.687 180.000,98.889 180.000 C 99.366 180.000,100.400 181.035,100.400 181.512 C 100.400 181.715,100.940 182.446,101.600 183.137 C 102.260 183.828,102.800 184.583,102.800 184.816 C 102.800 185.048,104.060 186.481,105.600 188.000 C 107.140 189.519,108.400 190.950,108.400 191.181 C 108.400 191.411,108.670 191.600,109.000 191.600 C 109.330 191.600,109.600 191.780,109.600 192.000 C 109.600 192.220,110.050 192.400,110.600 192.400 C 111.150 192.400,111.600 192.572,111.600 192.782 C 111.600 192.992,112.014 193.577,112.519 194.083 C 113.025 194.588,113.559 195.317,113.707 195.701 C 113.854 196.085,114.251 196.400,114.587 196.400 C 114.924 196.400,115.200 196.580,115.200 196.800 C 115.200 197.020,115.483 197.200,115.829 197.200 C 116.676 197.200,117.506 198.081,117.285 198.746 C 117.156 199.132,117.342 199.209,117.945 199.017 C 118.593 198.812,119.138 199.122,120.331 200.375 C 121.181 201.269,122.174 202.000,122.538 202.000 C 122.902 202.000,123.200 202.180,123.200 202.400 C 123.200 202.620,123.545 202.800,123.967 202.800 C 124.388 202.800,124.793 202.935,124.867 203.100 C 124.940 203.265,125.900 203.841,127.000 204.379 C 128.100 204.918,129.285 205.594,129.634 205.882 C 130.804 206.847,135.202 208.800,136.206 208.800 C 136.753 208.800,137.200 208.980,137.200 209.200 C 137.200 209.420,137.740 209.600,138.400 209.600 C 139.060 209.600,139.600 209.780,139.600 210.000 C 139.600 210.220,139.917 210.400,140.304 210.400 C 140.691 210.400,141.232 210.760,141.507 211.200 C 141.784 211.644,142.440 212.000,142.980 212.000 C 143.515 212.000,144.064 212.180,144.200 212.400 C 144.336 212.620,144.876 212.800,145.400 212.800 C 145.924 212.800,146.464 212.980,146.600 213.200 C 146.736 213.420,147.366 213.600,148.000 213.600 C 148.634 213.600,149.264 213.780,149.400 214.000 C 149.536 214.220,150.177 214.400,150.824 214.400 C 151.471 214.400,152.000 214.580,152.000 214.800 C 152.000 215.020,152.720 215.200,153.600 215.200 C 154.480 215.200,155.200 215.380,155.200 215.600 C 155.200 215.820,155.920 216.000,156.800 216.000 C 157.680 216.000,158.400 216.163,158.400 216.363 C 158.400 216.563,159.300 216.957,160.400 217.239 C 161.500 217.521,162.400 217.897,162.400 218.076 C 162.400 218.254,163.199 218.400,164.176 218.400 C 165.153 218.400,166.064 218.580,166.200 218.800 C 166.336 219.020,167.247 219.200,168.224 219.200 C 169.201 219.200,170.000 219.380,170.000 219.600 C 170.000 219.820,170.900 220.000,172.000 220.000 C 173.100 220.000,174.000 220.180,174.000 220.400 C 174.000 220.620,174.799 220.800,175.776 220.800 C 176.753 220.800,177.664 220.980,177.800 221.200 C 177.936 221.420,178.836 221.600,179.800 221.600 C 180.764 221.600,181.664 221.780,181.800 222.000 C 181.936 222.220,182.697 222.400,183.492 222.400 C 184.287 222.400,185.221 222.649,185.569 222.953 C 185.916 223.258,187.280 223.716,188.600 223.971 C 189.920 224.226,191.810 224.597,192.800 224.794 C 193.790 224.991,195.365 225.163,196.300 225.176 C 197.235 225.189,198.000 225.380,198.000 225.600 C 198.000 225.820,198.900 226.000,200.000 226.000 C 201.100 226.000,202.000 226.180,202.000 226.400 C 202.000 226.620,202.900 226.800,204.000 226.800 C 205.100 226.800,206.000 226.980,206.000 227.200 C 206.000 227.420,206.680 227.600,207.512 227.600 C 208.565 227.600,209.198 227.843,209.600 228.400 C 210.020 228.983,210.635 229.200,211.865 229.200 C 212.793 229.200,213.664 229.380,213.800 229.600 C 213.936 229.820,214.836 230.000,215.800 230.000 C 216.764 230.000,217.664 230.180,217.800 230.400 C 217.936 230.620,218.836 230.800,219.800 230.800 C 220.764 230.800,221.664 230.980,221.800 231.200 C 221.936 231.420,222.667 231.600,223.424 231.600 C 224.181 231.600,224.800 231.780,224.800 232.000 C 224.800 232.220,225.520 232.400,226.400 232.400 C 227.280 232.400,228.000 232.580,228.000 232.800 C 228.000 233.020,228.548 233.200,229.217 233.200 C 229.886 233.200,230.820 233.560,231.292 234.000 C 231.764 234.440,232.556 234.800,233.052 234.800 C 233.547 234.800,234.064 234.980,234.200 235.200 C 234.336 235.420,235.067 235.600,235.824 235.600 C 236.581 235.600,237.200 235.780,237.200 236.000 C 237.200 236.220,237.740 236.400,238.400 236.400 C 239.060 236.400,239.600 236.580,239.600 236.800 C 239.600 237.020,240.142 237.200,240.805 237.200 C 241.468 237.200,242.368 237.380,242.805 237.600 C 243.242 237.820,243.958 238.180,244.395 238.400 C 244.832 238.620,245.447 238.800,245.761 238.800 C 246.076 238.800,246.399 238.996,246.478 239.235 C 246.649 239.748,250.438 241.219,252.300 241.495 C 253.015 241.601,253.600 241.848,253.600 242.044 C 253.600 242.240,253.960 242.400,254.400 242.400 C 254.840 242.400,255.200 242.580,255.200 242.800 C 255.200 243.020,255.740 243.200,256.400 243.200 C 257.060 243.200,257.600 243.380,257.600 243.600 C 257.600 243.820,257.864 244.000,258.186 244.000 C 258.508 244.000,258.965 244.360,259.200 244.800 C 259.435 245.240,259.892 245.600,260.214 245.600 C 260.536 245.600,260.800 245.780,260.800 246.000 C 260.800 246.220,261.149 246.400,261.576 246.400 C 262.003 246.400,262.464 246.580,262.600 246.800 C 262.736 247.020,263.197 247.200,263.624 247.200 C 264.051 247.200,264.400 247.380,264.400 247.600 C 264.400 247.820,264.760 248.000,265.200 248.000 C 265.640 248.000,266.000 248.180,266.000 248.400 C 266.000 248.620,266.360 248.800,266.800 248.800 C 267.240 248.800,267.600 248.980,267.600 249.200 C 267.600 249.420,268.026 249.600,268.546 249.600 C 269.066 249.600,269.950 249.960,270.509 250.400 C 271.069 250.840,271.637 251.200,271.772 251.200 C 271.986 251.200,275.899 254.159,278.200 256.061 C 281.901 259.121,287.353 264.857,289.737 268.200 C 291.306 270.400,292.727 272.260,292.895 272.333 C 293.063 272.407,293.200 272.812,293.200 273.233 C 293.200 273.655,293.340 274.000,293.511 274.000 C 293.767 274.000,295.199 276.691,298.457 283.295 C 298.646 283.677,298.800 284.352,298.800 284.795 C 298.800 285.238,298.980 285.600,299.200 285.600 C 299.420 285.600,299.600 286.039,299.600 286.576 C 299.600 287.113,299.780 287.664,300.000 287.800 C 300.220 287.936,300.400 288.498,300.400 289.050 C 300.400 289.601,300.614 290.446,300.875 290.926 C 301.137 291.407,301.397 292.070,301.454 292.400 C 301.511 292.730,301.991 295.070,302.523 297.600 C 303.936 304.330,304.400 308.417,304.400 314.121 C 304.400 318.126,304.515 319.200,304.942 319.200 C 305.889 319.200,307.552 317.323,308.640 315.025 C 309.219 313.801,309.853 312.800,310.047 312.800 C 310.241 312.800,310.400 312.459,310.400 312.043 C 310.400 311.626,310.689 311.175,311.042 311.039 C 311.408 310.899,311.585 310.537,311.454 310.197 C 311.299 309.792,311.479 309.600,312.013 309.600 C 312.533 309.600,312.800 309.329,312.800 308.800 C 312.800 308.360,312.980 308.000,313.200 308.000 C 313.420 308.000,313.600 307.640,313.600 307.200 C 313.600 306.760,313.780 306.400,314.000 306.400 C 314.220 306.400,314.400 305.950,314.400 305.400 C 314.400 304.850,314.580 304.400,314.800 304.400 C 315.020 304.400,315.200 304.055,315.200 303.633 C 315.200 303.212,315.378 302.807,315.597 302.733 C 315.815 302.660,316.033 302.118,316.081 301.529 C 316.130 300.940,316.306 300.542,316.473 300.645 C 316.640 300.748,316.888 300.388,317.024 299.845 C 317.161 299.302,317.526 298.761,317.836 298.641 C 318.146 298.522,318.400 297.980,318.400 297.436 C 318.400 296.892,318.580 296.336,318.800 296.200 C 319.020 296.064,319.200 295.524,319.200 295.000 C 319.200 294.476,319.380 293.936,319.600 293.800 C 319.820 293.664,320.000 293.034,320.000 292.400 C 320.000 291.766,320.180 291.136,320.400 291.000 C 320.620 290.864,320.800 290.133,320.800 289.376 C 320.800 288.619,320.980 288.000,321.200 288.000 C 321.420 288.000,321.600 287.406,321.600 286.680 C 321.600 285.954,321.782 285.178,322.005 284.955 C 322.228 284.732,322.475 283.776,322.556 282.829 C 322.636 281.882,322.884 280.994,323.106 280.854 C 323.695 280.484,324.372 274.802,323.828 274.794 C 323.592 274.791,323.670 274.617,324.000 274.409 C 325.399 273.524,324.573 244.255,323.099 242.478 C 322.837 242.163,322.600 241.260,322.573 240.473 C 322.546 239.685,322.316 238.972,322.062 238.887 C 321.808 238.803,321.600 238.028,321.600 237.167 C 321.600 236.305,321.420 235.600,321.200 235.600 C 320.980 235.600,320.800 234.880,320.800 234.000 C 320.800 233.120,320.620 232.400,320.400 232.400 C 320.180 232.400,320.000 231.860,320.000 231.200 C 320.000 230.540,319.820 230.000,319.600 230.000 C 319.380 230.000,319.200 229.561,319.200 229.024 C 319.200 228.487,319.020 227.936,318.800 227.800 C 318.580 227.664,318.400 227.180,318.400 226.723 C 318.400 226.267,318.023 225.567,317.563 225.168 C 317.103 224.769,316.844 224.252,316.989 224.018 C 317.133 223.785,316.969 223.486,316.625 223.354 C 316.281 223.222,316.000 222.774,316.000 222.357 C 316.000 221.941,315.820 221.600,315.600 221.600 C 315.380 221.600,315.200 221.240,315.200 220.800 C 315.200 220.360,315.020 220.000,314.800 220.000 C 314.580 220.000,314.400 219.640,314.400 219.200 C 314.400 218.760,314.220 218.400,314.000 218.400 C 313.780 218.400,313.600 218.040,313.600 217.600 C 313.600 217.160,313.420 216.800,313.200 216.800 C 312.980 216.800,312.800 216.460,312.800 216.045 C 312.800 215.630,312.262 214.865,311.604 214.345 C 310.946 213.825,310.406 213.209,310.404 212.975 C 310.402 212.742,310.062 212.188,309.649 211.745 C 309.236 211.301,308.781 210.569,308.637 210.117 C 308.351 209.216,307.066 207.600,306.635 207.600 C 306.236 207.600,304.400 205.696,304.400 205.282 C 304.400 204.713,301.103 201.452,299.900 200.832 C 299.295 200.520,298.800 200.070,298.800 199.832 C 298.799 199.157,296.971 197.200,296.342 197.200 C 296.031 197.200,295.517 196.840,295.200 196.400 C 294.883 195.960,294.385 195.600,294.094 195.600 C 293.507 195.600,291.600 193.835,291.600 193.293 C 291.600 193.104,290.970 192.702,290.200 192.400 C 289.430 192.098,288.800 191.704,288.800 191.525 C 288.800 191.346,288.480 191.200,288.088 191.200 C 287.697 191.200,287.117 190.840,286.800 190.400 C 286.483 189.960,285.915 189.600,285.539 189.600 C 285.162 189.600,284.740 189.240,284.600 188.800 C 284.460 188.360,284.088 188.000,283.773 188.000 C 283.458 188.000,283.200 187.820,283.200 187.600 C 283.200 187.380,282.840 187.200,282.400 187.200 C 281.960 187.200,281.600 187.020,281.600 186.800 C 281.600 186.580,281.240 186.400,280.800 186.400 C 280.360 186.400,280.000 186.220,280.000 186.000 C 280.000 185.780,279.640 185.600,279.200 185.600 C 278.760 185.600,278.400 185.420,278.400 185.200 C 278.400 184.980,278.040 184.800,277.600 184.800 C 277.160 184.800,276.800 184.620,276.800 184.400 C 276.800 184.180,276.350 184.000,275.800 184.000 C 275.250 184.000,274.800 183.820,274.800 183.600 C 274.800 183.380,274.612 183.200,274.383 183.200 C 274.154 183.200,273.580 182.840,273.108 182.400 C 272.636 181.960,272.019 181.600,271.737 181.600 C 271.455 181.600,270.583 181.240,269.800 180.800 C 269.017 180.360,268.032 180.000,267.611 180.000 C 267.191 180.000,266.736 179.820,266.600 179.600 C 266.464 179.380,265.924 179.200,265.400 179.200 C 264.876 179.200,264.336 179.020,264.200 178.800 C 264.064 178.580,263.528 178.400,263.010 178.400 C 262.491 178.400,261.999 178.197,261.917 177.950 C 261.834 177.703,261.279 177.500,260.683 177.500 C 260.088 177.500,259.600 177.293,259.600 177.040 C 259.600 176.557,255.002 175.256,252.100 174.918 C 251.165 174.809,250.400 174.558,250.400 174.360 C 250.400 174.162,249.680 174.000,248.800 174.000 C 247.920 174.000,247.200 173.820,247.200 173.600 C 247.200 173.380,246.401 173.200,245.424 173.200 C 244.447 173.200,243.536 173.020,243.400 172.800 C 243.264 172.580,242.651 172.400,242.038 172.400 C 241.425 172.400,240.598 172.040,240.200 171.600 C 239.691 171.037,238.968 170.800,237.762 170.800 C 236.819 170.800,235.936 170.620,235.800 170.400 C 235.664 170.180,234.663 170.000,233.576 170.000 C 232.489 170.000,231.600 169.820,231.600 169.600 C 231.600 169.380,230.700 169.200,229.600 169.200 C 228.500 169.200,227.600 169.020,227.600 168.800 C 227.600 168.580,226.801 168.400,225.824 168.400 C 224.847 168.400,223.936 168.220,223.800 168.000 C 223.664 167.780,222.944 167.600,222.200 167.600 C 221.456 167.600,220.736 167.420,220.600 167.200 C 220.464 166.980,219.643 166.800,218.776 166.800 C 217.733 166.800,216.929 166.529,216.400 166.000 C 215.837 165.437,215.067 165.200,213.800 165.200 C 212.810 165.200,212.000 165.020,212.000 164.800 C 212.000 164.580,211.100 164.400,210.000 164.400 C 208.900 164.400,208.000 164.220,208.000 164.000 C 208.000 163.780,207.201 163.600,206.224 163.600 C 205.247 163.600,204.336 163.420,204.200 163.200 C 204.064 162.980,203.153 162.800,202.176 162.800 C 201.199 162.800,200.400 162.620,200.400 162.400 C 200.400 162.180,199.500 162.000,198.400 162.000 C 197.300 162.000,196.400 161.820,196.400 161.600 C 196.400 161.380,195.745 161.200,194.944 161.200 C 194.029 161.200,193.289 160.940,192.952 160.500 C 192.513 159.927,192.350 159.899,192.056 160.345 C 191.822 160.701,191.645 160.737,191.548 160.449 C 191.381 159.952,184.896 158.422,182.900 158.409 C 182.185 158.404,181.600 158.220,181.600 158.000 C 181.600 157.780,180.880 157.600,180.000 157.600 C 179.120 157.600,178.400 157.420,178.400 157.200 C 178.400 156.980,177.680 156.800,176.800 156.800 C 175.920 156.800,175.200 156.620,175.200 156.400 C 175.200 156.180,174.756 156.000,174.214 156.000 C 173.638 156.000,173.050 155.668,172.800 155.200 C 172.523 154.682,171.962 154.400,171.210 154.400 C 170.570 154.400,169.936 154.220,169.800 154.000 C 169.664 153.780,168.933 153.600,168.176 153.600 C 167.419 153.600,166.800 153.420,166.800 153.200 C 166.800 152.980,166.260 152.800,165.600 152.800 C 164.940 152.800,164.400 152.620,164.400 152.400 C 164.400 152.180,163.860 152.000,163.200 152.000 C 162.540 152.000,162.000 151.820,162.000 151.600 C 162.000 151.380,161.460 151.200,160.800 151.200 C 160.140 151.200,159.600 151.020,159.600 150.800 C 159.600 150.580,159.283 150.400,158.896 150.400 C 158.509 150.400,157.968 150.040,157.693 149.600 C 157.418 149.160,156.835 148.800,156.397 148.800 C 155.958 148.800,155.600 148.620,155.600 148.400 C 155.600 148.180,155.150 148.000,154.600 148.000 C 154.050 148.000,153.600 147.820,153.600 147.600 C 153.600 147.380,153.251 147.200,152.824 147.200 C 152.397 147.200,151.936 147.020,151.800 146.800 C 151.664 146.580,151.113 146.400,150.576 146.400 C 150.039 146.400,149.600 146.220,149.600 146.000 C 149.600 145.780,149.240 145.600,148.800 145.600 C 148.360 145.600,148.000 145.420,148.000 145.200 C 148.000 144.980,147.659 144.800,147.243 144.800 C 146.826 144.800,146.399 144.575,146.293 144.300 C 146.069 143.717,142.985 142.000,142.162 142.000 C 141.853 142.000,141.600 141.820,141.600 141.600 C 141.600 141.380,141.407 141.200,141.171 141.200 C 140.518 141.200,139.601 140.140,139.919 139.752 C 140.074 139.563,139.795 139.750,139.300 140.166 C 138.805 140.583,138.400 141.187,138.400 141.509 C 138.400 144.123,123.568 131.921,118.332 125.000 C 116.258 122.259,112.400 116.567,112.400 116.248 C 112.400 116.131,111.893 115.172,111.274 114.118 C 107.240 107.247,103.823 95.747,102.801 85.600 C 102.233 79.968,102.061 79.200,101.369 79.200 C 101.045 79.200,100.920 79.448,101.060 79.813 M196.500 91.097 C 197.985 91.174,200.415 91.174,201.900 91.097 C 203.385 91.020,202.170 90.957,199.200 90.957 C 196.230 90.957,195.015 91.020,196.500 91.097 M173.737 94.511 C 173.551 94.826,173.130 95.185,172.800 95.310 C 172.297 95.500,172.305 95.542,172.851 95.568 C 173.552 95.602,174.657 94.524,174.294 94.160 C 174.172 94.039,173.922 94.197,173.737 94.511 M223.200 95.200 C 223.200 95.420,223.560 95.600,224.000 95.600 C 224.440 95.600,224.800 95.420,224.800 95.200 C 224.800 94.980,224.440 94.800,224.000 94.800 C 223.560 94.800,223.200 94.980,223.200 95.200 M310.700 96.665 C 310.975 96.776,311.200 97.122,311.200 97.433 C 311.200 97.745,311.386 98.000,311.614 98.000 C 311.895 98.000,311.890 97.742,311.600 97.200 C 311.365 96.760,310.953 96.414,310.686 96.432 C 310.320 96.455,310.323 96.513,310.700 96.665 M161.322 101.037 L 160.200 102.073 161.500 101.209 C 162.691 100.418,163.079 100.000,162.622 100.000 C 162.525 100.000,161.940 100.467,161.322 101.037 M316.854 111.290 C 316.825 111.670,317.159 112.570,317.599 113.290 C 318.068 114.060,318.398 114.332,318.399 113.949 C 318.399 113.591,318.141 113.083,317.824 112.820 C 317.507 112.557,317.172 111.950,317.078 111.471 C 316.964 110.881,316.891 110.823,316.854 111.290 M247.781 114.638 C 248.132 114.989,248.689 115.799,249.020 116.438 C 249.350 117.077,249.807 117.600,250.035 117.600 C 250.263 117.600,249.868 116.790,249.157 115.800 C 248.446 114.810,247.702 114.000,247.504 114.000 C 247.305 114.000,247.430 114.287,247.781 114.638 M140.267 133.067 C 140.120 133.213,140.018 133.888,140.041 134.567 L 140.082 135.800 140.410 134.403 C 140.753 132.947,140.717 132.616,140.267 133.067 M265.685 262.813 C 265.418 263.240,265.207 263.907,265.216 264.295 C 265.225 264.693,265.488 264.408,265.822 263.639 C 266.490 262.101,266.414 261.645,265.685 262.813 M154.800 282.562 C 154.800 283.079,156.553 285.200,156.975 285.194 C 157.265 285.190,157.269 285.094,156.986 284.894 C 156.759 284.732,156.174 284.081,155.686 283.446 C 155.199 282.811,154.800 282.414,154.800 282.562 M81.625 286.451 C 81.597 287.191,82.686 288.247,83.076 287.857 C 83.218 287.716,83.118 287.600,82.854 287.600 C 82.590 287.600,82.211 287.195,82.012 286.700 C 81.768 286.091,81.643 286.010,81.625 286.451 M244.600 293.806 L 243.400 294.809 244.697 294.104 C 245.411 293.717,245.996 293.265,245.997 293.100 C 246.001 292.663,245.919 292.704,244.600 293.806 M87.200 298.177 C 87.200 298.650,88.925 301.200,89.245 301.200 C 89.447 301.200,89.135 300.480,88.553 299.600 C 87.574 298.122,87.200 297.728,87.200 298.177 M177.411 298.537 C 178.789 299.476,180.987 300.108,180.396 299.395 C 180.124 299.068,179.485 298.800,178.975 298.800 C 178.465 298.800,177.936 298.620,177.800 298.400 C 177.664 298.180,177.343 298.000,177.087 298.000 C 176.831 298.000,176.977 298.242,177.411 298.537 M232.300 299.232 C 231.915 299.456,231.600 299.847,231.600 300.100 C 231.600 300.436,231.730 300.430,232.080 300.080 C 232.344 299.816,232.873 299.600,233.256 299.600 C 233.639 299.600,234.064 299.420,234.200 299.200 C 234.520 298.682,233.206 298.704,232.300 299.232 M200.600 303.200 C 200.736 303.420,201.422 303.597,202.124 303.594 C 203.095 303.589,203.257 303.495,202.800 303.200 C 202.007 302.687,200.283 302.687,200.600 303.200 M210.946 303.287 C 210.678 303.721,211.672 303.669,212.395 303.212 C 212.859 302.918,212.786 302.851,212.065 302.905 C 211.556 302.943,211.052 303.115,210.946 303.287 M295.300 328.998 C 294.557 329.842,294.694 330.073,295.600 329.507 C 296.040 329.232,296.400 328.871,296.400 328.704 C 296.400 328.227,295.849 328.375,295.300 328.998 M292.706 331.772 C 292.324 332.051,292.121 332.388,292.254 332.521 C 292.387 332.653,292.765 332.492,293.095 332.162 C 293.872 331.385,293.603 331.116,292.706 331.772 M289.045 334.444 C 288.034 335.349,287.314 336.261,287.444 336.471 C 287.713 336.906,288.200 336.545,288.200 335.910 C 288.200 335.678,288.539 335.288,288.953 335.044 C 289.988 334.434,291.641 332.800,291.223 332.800 C 291.035 332.800,290.055 333.540,289.045 334.444 M125.600 338.946 C 125.600 339.056,126.140 339.530,126.800 340.000 C 127.460 340.470,128.000 340.764,128.000 340.654 C 128.000 340.544,127.460 340.070,126.800 339.600 C 126.140 339.130,125.600 338.836,125.600 338.946 M272.700 344.676 C 271.868 344.893,271.759 345.600,272.557 345.600 C 272.864 345.600,273.218 345.330,273.345 345.000 C 273.471 344.670,273.536 344.421,273.487 344.446 C 273.439 344.472,273.085 344.575,272.700 344.676 M148.926 350.297 C 149.497 350.869,152.400 352.098,152.400 351.768 C 152.400 351.693,151.476 351.189,150.348 350.649 C 149.048 350.027,148.527 349.898,148.926 350.297 M259.800 350.800 C 259.664 351.020,259.823 351.200,260.153 351.200 C 260.483 351.200,260.864 351.020,261.000 350.800 C 261.136 350.580,260.977 350.400,260.647 350.400 C 260.317 350.400,259.936 350.580,259.800 350.800 M242.799 355.819 C 241.836 356.352,241.831 356.372,242.676 356.386 C 243.158 356.394,243.671 356.208,243.816 355.973 C 244.243 355.283,243.869 355.227,242.799 355.819 M168.000 356.005 C 168.330 356.216,169.125 356.391,169.767 356.394 C 171.314 356.402,170.977 356.171,169.000 355.868 C 167.910 355.701,167.591 355.745,168.000 356.005 M172.000 356.800 C 172.788 357.309,173.715 357.309,173.400 356.800 C 173.264 356.580,172.758 356.403,172.276 356.406 C 171.564 356.411,171.512 356.485,172.000 356.800 M175.300 357.476 C 175.685 357.576,176.315 357.576,176.700 357.476 C 177.085 357.375,176.770 357.293,176.000 357.293 C 175.230 357.293,174.915 357.375,175.300 357.476 M235.700 357.476 C 236.085 357.576,236.715 357.576,237.100 357.476 C 237.485 357.375,237.170 357.293,236.400 357.293 C 235.630 357.293,235.315 357.375,235.700 357.476 " stroke="none" fill="#f44b3b" fill-rule="evenodd"></path><path id="path2" d="M194.866 36.750 C 194.441 37.020,194.468 37.140,194.999 37.344 C 195.998 37.728,200.721 37.652,200.970 37.249 C 201.424 36.514,195.945 36.066,194.866 36.750 M180.621 37.567 C 180.173 38.291,181.285 38.486,184.263 38.207 C 185.911 38.053,187.201 37.874,187.130 37.809 C 186.745 37.462,180.822 37.241,180.621 37.567 M210.400 37.579 C 209.050 37.843,209.081 37.864,211.293 38.171 C 213.748 38.513,215.785 38.223,215.393 37.588 C 215.128 37.159,212.572 37.154,210.400 37.579 M231.700 41.076 C 232.085 41.176,232.715 41.176,233.100 41.076 C 233.485 40.975,233.170 40.893,232.400 40.893 C 231.630 40.893,231.315 40.975,231.700 41.076 M160.600 41.600 C 160.453 41.838,160.890 41.989,161.676 41.972 C 162.779 41.948,162.867 41.886,162.200 41.600 C 161.115 41.134,160.888 41.134,160.600 41.600 M235.164 41.631 C 234.753 41.891,234.899 41.989,235.700 41.994 C 236.894 42.001,237.110 41.804,236.264 41.480 C 235.969 41.367,235.474 41.435,235.164 41.631 M157.200 42.367 C 157.200 42.863,158.039 43.111,158.934 42.879 C 159.505 42.731,159.549 42.614,159.134 42.351 C 158.420 41.898,157.200 41.909,157.200 42.367 M238.400 42.400 C 237.910 42.716,237.966 42.800,238.700 42.854 C 239.195 42.890,239.810 42.938,240.067 42.960 C 240.323 42.982,240.608 42.775,240.700 42.500 C 240.900 41.901,239.281 41.831,238.400 42.400 M154.400 43.200 C 154.400 43.420,154.895 43.597,155.500 43.594 C 156.357 43.589,156.468 43.502,156.000 43.200 C 155.217 42.694,154.400 42.694,154.400 43.200 M241.800 43.200 C 241.660 43.427,241.996 43.600,242.576 43.600 C 243.139 43.600,243.600 43.420,243.600 43.200 C 243.600 42.980,243.251 42.800,242.824 42.800 C 242.397 42.800,241.936 42.980,241.800 43.200 M142.200 48.000 C 142.064 48.220,142.323 48.400,142.776 48.400 C 143.229 48.400,143.600 48.220,143.600 48.000 C 143.600 47.780,143.341 47.600,143.024 47.600 C 142.707 47.600,142.336 47.780,142.200 48.000 M257.200 48.800 C 257.200 49.020,257.470 49.200,257.800 49.200 C 258.130 49.200,258.400 49.020,258.400 48.800 C 258.400 48.580,258.130 48.400,257.800 48.400 C 257.470 48.400,257.200 48.580,257.200 48.800 M130.842 53.861 C 130.347 54.419,130.392 54.458,131.242 54.200 C 132.574 53.797,133.146 53.196,132.180 53.215 C 131.751 53.224,131.149 53.514,130.842 53.861 M283.067 64.267 C 282.941 64.392,283.108 64.765,283.438 65.095 C 283.768 65.425,284.141 65.592,284.267 65.467 C 284.392 65.341,284.225 64.968,283.895 64.638 C 283.565 64.308,283.192 64.141,283.067 64.267 M289.200 69.928 C 289.200 70.384,291.086 71.981,291.333 71.733 C 291.581 71.486,289.984 69.600,289.528 69.600 C 289.348 69.600,289.200 69.748,289.200 69.928 M104.312 76.168 C 103.780 76.556,103.709 76.917,103.982 77.832 C 104.211 78.599,104.343 78.736,104.366 78.231 C 104.385 77.809,104.682 77.152,105.026 76.771 C 105.788 75.929,105.255 75.478,104.312 76.168 M295.873 77.445 C 296.114 78.075,296.646 78.172,296.972 77.645 C 297.092 77.450,296.846 77.201,296.425 77.091 C 295.889 76.951,295.724 77.057,295.873 77.445 M305.465 87.926 C 305.581 88.369,306.129 89.152,306.684 89.666 L 307.692 90.600 306.623 89.010 C 305.277 87.009,305.208 86.944,305.465 87.926 M187.600 89.600 C 187.600 89.820,188.230 90.000,189.000 90.000 C 189.770 90.000,190.400 89.820,190.400 89.600 C 190.400 89.380,189.770 89.200,189.000 89.200 C 188.230 89.200,187.600 89.380,187.600 89.600 M206.400 89.600 C 206.400 89.820,207.210 90.000,208.200 90.000 C 209.190 90.000,210.000 89.820,210.000 89.600 C 210.000 89.380,209.190 89.200,208.200 89.200 C 207.210 89.200,206.400 89.380,206.400 89.600 M181.600 90.400 C 182.390 90.910,184.400 90.910,184.400 90.400 C 184.400 90.180,183.635 90.003,182.700 90.006 C 181.455 90.011,181.161 90.116,181.600 90.400 M212.800 90.400 C 212.800 90.620,213.419 90.800,214.176 90.800 C 214.933 90.800,215.664 90.620,215.800 90.400 C 215.949 90.158,215.404 90.000,214.424 90.000 C 213.531 90.000,212.800 90.180,212.800 90.400 M178.000 91.200 C 178.000 91.420,178.349 91.600,178.776 91.600 C 179.203 91.600,179.664 91.420,179.800 91.200 C 179.940 90.973,179.604 90.800,179.024 90.800 C 178.461 90.800,178.000 90.980,178.000 91.200 M191.905 91.083 C 192.402 91.179,193.122 91.175,193.505 91.075 C 193.887 90.975,193.480 90.896,192.600 90.901 C 191.720 90.905,191.407 90.987,191.905 91.083 M217.200 91.200 C 217.200 91.420,217.639 91.600,218.176 91.600 C 218.713 91.600,219.264 91.420,219.400 91.200 C 219.544 90.967,219.137 90.800,218.424 90.800 C 217.751 90.800,217.200 90.980,217.200 91.200 M307.200 94.200 C 307.200 94.530,307.380 94.800,307.600 94.800 C 307.820 94.800,308.000 94.530,308.000 94.200 C 308.000 93.870,307.820 93.600,307.600 93.600 C 307.380 93.600,307.200 93.870,307.200 94.200 M156.800 101.400 C 156.517 101.741,156.376 102.109,156.486 102.219 C 156.596 102.329,156.917 102.141,157.200 101.800 C 157.483 101.459,157.624 101.091,157.514 100.981 C 157.404 100.871,157.083 101.059,156.800 101.400 M238.400 101.102 C 238.400 101.322,238.670 101.726,239.000 102.000 C 239.335 102.278,239.600 102.321,239.600 102.098 C 239.600 101.878,239.330 101.474,239.000 101.200 C 238.665 100.922,238.400 100.879,238.400 101.102 M311.606 103.500 C 311.625 104.416,312.302 104.817,312.507 104.034 C 312.652 103.481,312.536 103.200,312.163 103.200 C 311.853 103.200,311.603 103.335,311.606 103.500 M312.400 105.976 C 312.400 106.647,313.109 106.813,313.346 106.198 C 313.485 105.835,313.344 105.600,312.987 105.600 C 312.664 105.600,312.400 105.769,312.400 105.976 M317.334 119.827 C 317.202 120.172,317.298 120.658,317.547 120.907 C 317.884 121.244,318.000 121.084,318.000 120.280 C 318.000 119.077,317.701 118.873,317.334 119.827 M317.924 124.200 C 317.818 125.107,317.928 125.600,318.237 125.600 C 318.498 125.600,318.786 124.970,318.876 124.200 C 318.982 123.293,318.872 122.800,318.563 122.800 C 318.302 122.800,318.014 123.430,317.924 124.200 M140.000 125.600 C 140.000 126.040,140.180 126.400,140.400 126.400 C 140.620 126.400,140.800 126.040,140.800 125.600 C 140.800 125.160,140.620 124.800,140.400 124.800 C 140.180 124.800,140.000 125.160,140.000 125.600 M269.067 256.667 C 268.920 256.813,268.800 257.563,268.800 258.333 C 268.800 260.091,269.114 259.836,269.356 257.880 C 269.546 256.347,269.515 256.218,269.067 256.667 M110.278 264.702 C 88.986 264.770,78.040 264.940,78.201 265.202 C 78.584 265.821,143.715 265.744,143.508 265.125 C 143.310 264.529,147.609 264.584,110.278 264.702 M289.590 271.181 C 289.837 271.644,290.211 271.917,290.420 271.788 C 290.972 271.446,290.897 271.280,289.970 270.784 C 289.208 270.376,289.177 270.409,289.590 271.181 M264.800 272.600 C 264.800 272.930,264.980 273.200,265.200 273.200 C 265.420 273.200,265.600 272.930,265.600 272.600 C 265.600 272.270,265.420 272.000,265.200 272.000 C 264.980 272.000,264.800 272.270,264.800 272.600 M80.400 275.600 C 80.400 276.040,80.580 276.400,80.800 276.400 C 81.020 276.400,81.200 276.040,81.200 275.600 C 81.200 275.160,81.020 274.800,80.800 274.800 C 80.580 274.800,80.400 275.160,80.400 275.600 M81.200 278.600 C 81.200 279.150,81.380 279.600,81.600 279.600 C 81.820 279.600,82.000 279.150,82.000 278.600 C 82.000 278.050,81.820 277.600,81.600 277.600 C 81.380 277.600,81.200 278.050,81.200 278.600 M82.000 281.400 C 82.000 281.730,82.180 282.000,82.400 282.000 C 82.620 282.000,82.800 281.730,82.800 281.400 C 82.800 281.070,82.620 280.800,82.400 280.800 C 82.180 280.800,82.000 281.070,82.000 281.400 M151.600 282.167 C 151.600 282.588,152.805 283.728,153.021 283.512 C 153.122 283.411,152.844 283.002,152.402 282.602 C 151.961 282.203,151.600 282.007,151.600 282.167 M296.000 283.376 C 296.000 283.693,296.161 284.052,296.358 284.174 C 296.770 284.429,297.266 283.400,296.906 283.039 C 296.477 282.610,296.000 282.787,296.000 283.376 M82.159 286.202 C 82.208 286.535,82.452 287.012,82.702 287.262 C 83.040 287.600,83.098 287.495,82.929 286.851 C 82.666 285.846,82.028 285.307,82.159 286.202 M254.400 288.200 C 254.122 288.535,254.079 288.800,254.302 288.800 C 254.522 288.800,254.926 288.530,255.200 288.200 C 255.478 287.865,255.521 287.600,255.298 287.600 C 255.078 287.600,254.674 287.870,254.400 288.200 M86.000 290.800 C 86.000 291.547,86.107 291.653,86.480 291.280 C 86.853 290.907,86.853 290.693,86.480 290.320 C 86.107 289.947,86.000 290.053,86.000 290.800 M86.669 292.563 C 86.444 293.150,86.704 293.600,87.267 293.600 C 87.713 293.600,87.694 292.505,87.242 292.226 C 87.045 292.104,86.787 292.256,86.669 292.563 M248.812 292.784 C 248.488 292.989,248.344 293.278,248.493 293.426 C 248.641 293.574,249.053 293.404,249.410 293.048 C 250.113 292.344,249.757 292.187,248.812 292.784 M172.200 298.800 C 172.336 299.020,172.707 299.200,173.024 299.200 C 173.341 299.200,173.600 299.020,173.600 298.800 C 173.600 298.580,173.229 298.400,172.776 298.400 C 172.323 298.400,172.064 298.580,172.200 298.800 M239.200 298.800 C 239.200 299.020,239.470 299.200,239.800 299.200 C 240.130 299.200,240.400 299.020,240.400 298.800 C 240.400 298.580,240.130 298.400,239.800 298.400 C 239.470 298.400,239.200 298.580,239.200 298.800 M300.800 299.776 C 300.800 300.533,300.980 301.264,301.200 301.400 C 301.442 301.549,301.600 301.004,301.600 300.024 C 301.600 299.131,301.420 298.400,301.200 298.400 C 300.980 298.400,300.800 299.019,300.800 299.776 M91.659 301.600 C 91.641 301.930,91.890 302.549,92.213 302.976 C 92.725 303.654,92.800 303.666,92.800 303.076 C 92.800 302.704,92.633 302.400,92.429 302.400 C 92.225 302.400,91.976 302.085,91.876 301.700 C 91.748 301.210,91.683 301.180,91.659 301.600 M229.200 302.800 C 229.200 303.020,229.459 303.200,229.776 303.200 C 230.093 303.200,230.464 303.020,230.600 302.800 C 230.736 302.580,230.477 302.400,230.024 302.400 C 229.571 302.400,229.200 302.580,229.200 302.800 M185.895 303.077 C 184.833 303.354,185.483 304.000,186.824 304.000 C 188.086 304.000,188.404 303.441,187.367 303.043 C 187.019 302.909,186.704 302.821,186.667 302.846 C 186.630 302.872,186.283 302.976,185.895 303.077 M225.298 303.066 C 224.527 303.376,225.130 304.000,226.200 304.000 C 227.348 304.000,227.844 303.379,226.965 303.042 C 226.259 302.771,226.021 302.774,225.298 303.066 M301.867 303.467 C 301.442 303.892,301.558 308.727,302.000 309.000 C 302.253 309.156,302.400 308.137,302.400 306.224 C 302.400 303.188,302.359 302.975,301.867 303.467 M190.000 304.021 L 189.000 304.285 190.052 304.574 C 191.412 304.947,193.428 304.715,193.302 304.200 C 193.187 303.735,191.443 303.641,190.000 304.021 M220.400 304.153 C 220.400 304.862,221.649 304.981,223.000 304.400 L 223.800 304.056 223.000 304.023 C 222.560 304.004,221.795 303.881,221.300 303.748 C 220.638 303.571,220.400 303.678,220.400 304.153 M199.800 304.782 C 198.103 305.158,206.025 305.456,211.000 305.203 C 213.693 305.066,214.608 304.912,213.800 304.730 C 212.278 304.388,201.397 304.428,199.800 304.782 M302.400 317.512 C 302.400 318.154,302.071 318.860,301.621 319.185 C 301.193 319.493,300.933 319.891,301.043 320.070 C 301.153 320.248,301.683 319.953,302.222 319.415 C 303.186 318.451,303.579 316.400,302.800 316.400 C 302.580 316.400,302.400 316.900,302.400 317.512 M114.602 329.202 C 115.002 329.644,115.415 329.918,115.521 329.812 C 115.790 329.543,114.792 328.400,114.289 328.400 C 114.062 328.400,114.203 328.761,114.602 329.202 M290.861 329.947 C 290.388 330.358,290.000 330.809,290.000 330.950 C 290.000 331.361,291.565 330.269,291.780 329.709 C 292.043 329.023,291.877 329.066,290.861 329.947 M277.200 340.400 C 277.200 340.620,277.470 340.800,277.800 340.800 C 278.130 340.800,278.400 340.620,278.400 340.400 C 278.400 340.180,278.130 340.000,277.800 340.000 C 277.470 340.000,277.200 340.180,277.200 340.400 M142.217 345.572 C 141.921 346.051,142.674 346.525,143.207 346.196 C 143.654 345.919,143.360 345.200,142.800 345.200 C 142.606 345.200,142.344 345.368,142.217 345.572 M144.606 346.390 C 144.291 346.900,144.946 347.204,145.553 346.829 C 145.954 346.581,145.931 346.459,145.446 346.273 C 145.105 346.142,144.727 346.195,144.606 346.390 M157.200 351.365 C 157.200 352.029,158.485 351.944,158.712 351.265 C 158.797 351.009,158.492 350.800,158.033 350.800 C 157.575 350.800,157.200 351.054,157.200 351.365 M251.800 351.200 C 251.664 351.420,251.923 351.600,252.376 351.600 C 252.829 351.600,253.200 351.420,253.200 351.200 C 253.200 350.980,252.941 350.800,252.624 350.800 C 252.307 350.800,251.936 350.980,251.800 351.200 M160.200 352.000 C 160.056 352.233,160.463 352.400,161.176 352.400 C 161.849 352.400,162.400 352.220,162.400 352.000 C 162.400 351.780,161.961 351.600,161.424 351.600 C 160.887 351.600,160.336 351.780,160.200 352.000 M248.600 352.000 C 248.456 352.233,248.863 352.400,249.576 352.400 C 250.249 352.400,250.800 352.220,250.800 352.000 C 250.800 351.780,250.361 351.600,249.824 351.600 C 249.287 351.600,248.736 351.780,248.600 352.000 M164.400 352.800 C 164.400 353.020,164.670 353.200,165.000 353.200 C 165.330 353.200,165.600 353.020,165.600 352.800 C 165.600 352.580,165.330 352.400,165.000 352.400 C 164.670 352.400,164.400 352.580,164.400 352.800 M245.600 352.800 C 245.600 353.020,245.870 353.200,246.200 353.200 C 246.530 353.200,246.800 353.020,246.800 352.800 C 246.800 352.580,246.530 352.400,246.200 352.400 C 245.870 352.400,245.600 352.580,245.600 352.800 M183.600 356.800 C 183.600 357.269,187.735 357.269,189.200 356.800 C 189.887 356.580,189.166 356.467,186.900 356.440 C 184.940 356.416,183.600 356.562,183.600 356.800 M224.000 356.800 C 224.793 357.313,228.800 357.313,228.800 356.800 C 228.800 356.572,227.637 356.403,226.100 356.406 C 224.209 356.410,223.580 356.528,224.000 356.800 M192.800 357.596 C 192.800 357.849,197.700 357.990,206.400 357.989 C 215.041 357.987,220.000 357.843,220.000 357.593 C 220.000 357.343,215.042 357.200,206.400 357.200 C 197.701 357.200,192.800 357.343,192.800 357.596 " stroke="none" fill="#fc7c6e" fill-rule="evenodd"></path><path id="path3" d="M224.033 37.343 C 224.450 37.702,227.197 37.919,226.985 37.576 C 226.857 37.369,226.103 37.200,225.310 37.200 C 224.516 37.200,223.942 37.265,224.033 37.343 M138.980 47.561 C 138.771 47.760,138.240 48.009,137.800 48.115 C 137.041 48.297,137.044 48.310,137.851 48.354 C 138.319 48.379,138.926 48.130,139.200 47.800 C 139.743 47.146,139.591 46.981,138.980 47.561 M260.000 47.779 C 260.000 47.855,260.726 48.275,261.612 48.714 C 262.513 49.160,263.033 49.280,262.789 48.987 C 262.387 48.502,260.000 47.468,260.000 47.779 M126.600 54.476 L 125.800 55.304 126.678 54.850 C 127.602 54.372,128.274 53.583,127.724 53.624 C 127.546 53.637,127.040 54.020,126.600 54.476 M102.947 79.479 C 102.640 79.585,102.595 80.117,102.806 81.118 C 102.978 81.933,103.236 84.130,103.380 86.000 C 104.868 105.296,114.845 124.156,129.880 136.094 C 135.693 140.709,138.400 142.189,138.400 140.753 C 138.400 140.533,138.214 140.468,137.986 140.609 C 136.732 141.383,125.754 132.428,120.738 126.539 C 117.714 122.989,112.374 114.810,110.723 111.200 C 109.255 107.989,106.831 101.652,106.333 99.724 C 105.016 94.621,104.440 91.089,103.998 85.400 C 103.519 79.240,103.526 79.279,102.947 79.479 M139.200 138.824 C 139.200 139.497,139.356 139.951,139.546 139.833 C 139.869 139.634,139.693 137.600,139.353 137.600 C 139.269 137.600,139.200 138.151,139.200 138.824 M273.200 252.506 C 273.200 252.594,273.965 253.274,274.900 254.017 C 275.835 254.760,276.346 255.052,276.036 254.665 C 275.451 253.937,273.200 252.223,273.200 252.506 M285.200 263.325 C 285.200 263.394,285.785 263.979,286.500 264.625 L 287.800 265.800 286.625 264.500 C 285.530 263.288,285.200 263.016,285.200 263.325 M292.000 272.000 C 292.470 272.660,292.944 273.200,293.054 273.200 C 293.164 273.200,292.870 272.660,292.400 272.000 C 291.930 271.340,291.456 270.800,291.346 270.800 C 291.236 270.800,291.530 271.340,292.000 272.000 M296.429 279.910 C 296.676 280.620,297.042 281.303,297.242 281.426 C 297.442 281.550,297.391 281.144,297.127 280.525 C 296.421 278.865,295.906 278.412,296.429 279.910 M303.293 304.400 C 303.293 305.170,303.375 305.485,303.476 305.100 C 303.576 304.715,303.576 304.085,303.476 303.700 C 303.375 303.315,303.293 303.630,303.293 304.400 M304.124 314.600 C 304.126 315.920,304.201 316.412,304.290 315.693 C 304.379 314.974,304.377 313.894,304.286 313.293 C 304.195 312.692,304.122 313.280,304.124 314.600 M300.975 322.900 L 299.800 324.200 301.198 323.000 C 301.967 322.340,302.672 321.755,302.765 321.700 C 302.857 321.645,302.757 321.600,302.542 321.600 C 302.326 321.600,301.621 322.185,300.975 322.900 M167.763 355.496 C 167.889 355.623,168.813 355.850,169.816 356.002 C 170.819 356.155,171.495 356.149,171.320 355.990 C 170.942 355.649,167.428 355.161,167.763 355.496 " stroke="none" fill="#f45f54" fill-rule="evenodd"></path><path id="path4" d="M102.089 80.000 C 102.203 80.330,102.524 82.850,102.801 85.600 C 103.078 88.350,103.549 91.500,103.846 92.600 C 104.223 93.989,104.334 94.173,104.210 93.200 C 104.112 92.430,103.754 89.198,103.413 86.017 C 103.072 82.836,102.589 80.046,102.338 79.817 C 102.011 79.518,101.941 79.569,102.089 80.000 M104.406 95.633 C 104.409 96.165,104.589 96.870,104.806 97.200 C 105.082 97.622,105.123 97.385,104.942 96.400 C 104.625 94.675,104.398 94.349,104.406 95.633 M105.232 98.529 C 105.162 100.137,108.927 109.979,111.096 113.860 C 112.799 116.907,112.421 115.742,110.200 111.100 C 109.016 108.625,107.480 104.800,106.786 102.600 C 106.093 100.400,105.467 98.420,105.395 98.200 C 105.322 97.980,105.249 98.128,105.232 98.529 M112.400 116.153 C 112.400 116.550,115.989 121.903,118.332 125.000 C 120.619 128.024,128.133 135.502,130.563 137.174 C 133.204 138.992,132.824 138.407,129.840 136.062 C 124.408 131.793,119.715 126.640,115.231 120.022 C 113.674 117.724,112.400 115.983,112.400 116.153 M132.800 138.553 C 132.800 138.894,137.396 142.000,137.900 142.000 C 138.175 142.000,138.400 141.809,138.400 141.576 C 138.400 141.343,138.223 141.262,138.007 141.396 C 137.790 141.530,136.530 140.903,135.207 140.005 C 133.883 139.106,132.800 138.453,132.800 138.553 M281.000 258.800 C 281.859 259.680,282.652 260.400,282.762 260.400 C 282.872 260.400,282.259 259.680,281.400 258.800 C 280.541 257.920,279.748 257.200,279.638 257.200 C 279.528 257.200,280.141 257.920,281.000 258.800 M285.200 263.000 C 286.395 264.210,287.463 265.200,287.573 265.200 C 287.683 265.200,286.795 264.210,285.600 263.000 C 284.405 261.790,283.337 260.800,283.227 260.800 C 283.117 260.800,284.005 261.790,285.200 263.000 M304.128 310.000 C 304.128 311.430,304.201 312.015,304.289 311.300 C 304.378 310.585,304.378 309.415,304.289 308.700 C 304.201 307.985,304.128 308.570,304.128 310.000 " stroke="none" fill="#f45444" fill-rule="evenodd"></path></g></svg>