<svg xmlns="http://www.w3.org/2000/svg" width="81" height="81" stroke="#000" stroke-linecap="round" stroke-linejoin="round" fill="#fff" fill-rule="evenodd"><path d="M40.5.5C18.4173.5.5 18.4173.5 40.5c0 22.112 17.9173 40 40 40s40-17.888 40-40c0-22.0827-17.9173-40-40-40zm10.5762 74.7253v-6.8321c0-2.6373-1.4375-4.9733-3.6563-6.4427.1494-.0293.3308-.0586.5095-.0586 3.8053-.4798 7.2506-1.6771 7.2506-1.6771s4.944-1.528 7.6107-4.6458c2.8161-3.2956 3.5361-8.1784 3.5361-8.1784s.9278-5.3333 0-9.4694c-.928-4.0449-3.8961-6.8613-3.8961-6.8613s1.0185-2.6374.928-5.3945c-.0908-2.6374-1.3174-5.392-1.3174-5.392s-2.3359-.2109-4.8239.7494c-3.0266 1.168-6.3229 3.5358-6.3229 3.5358s-2.3066-.7494-5.0026-1.1094c-2.4853-.3574-5.3919-.3867-5.3919-.3867s-2.9066.0293-5.3919.3893c-2.696.36-5.0026 1.1094-5.0026 1.1094s-3.2696-2.3678-6.3256-3.5358c-2.456-.9603-4.8238-.7494-4.8238-.7494s-1.1976 2.7546-1.2881 5.392c-.0905 2.7571.928 5.3945.928 5.3945s-2.9974 2.8164-3.8961 6.8613c-.96 4.1361 0 9.4694 0 9.4694s.72 4.8828 3.5068 8.1791c2.6667 3.1172 7.64 4.6451 7.64 4.6451s3.416 1.1973 7.2213 1.6771c.1787 0 .3601.0293.5388.0586-2.2162 1.4694-3.6856 3.8054-3.6856 6.4427v6.8321C15.0306 70.7025 4.2148 56.86 4.2148 40.5026c0-20.0456 16.24-36.2852 36.2852-36.2852S76.8148 20.4544 76.8148 40.5c0 16.36-10.8454 30.2025-25.7386 34.7253z" stroke="#fff"/></svg>