<svg xmlns="http://www.w3.org/2000/svg" xmlns:xlink="http://www.w3.org/1999/xlink" viewBox="0 0 66 49" fill="#fff" fill-rule="evenodd" stroke="#000" stroke-linecap="round" stroke-linejoin="round"><use xlink:href="#A" x="1" y="1"/><symbol id="A" overflow="visible"><g stroke="none" fill-rule="nonzero"><path d="M59.972 46.903H4.016C1.83 46.903 0 45.173 0 42.939V4.225A4.02 4.02 0 0 1 4.016.213h55.956a4.04 4.04 0 0 1 4.016 4.016v38.66c-.05 2.288-1.83 4.016-4.016 4.016z" fill="#f2f2f2"/><path d="M8 46.903l23.94-17.52.152-1.016L7.4 10.629l-.05 35.41z" fill="#221f1f" opacity=".1"/><g fill="#d44c3d"><path d="M4.016 46.903C1.8 46.903 0 45.173 0 42.939V4.173c0-2.236 1.8-2.64 4.016-2.64s4.016.46 4.016 2.64v42.728z"/><path d="M4.016 2.141c2.846 0 3.406.864 3.406 2.032v42.168H4.016c-1.88 0-3.406-1.524-3.406-3.406V4.173c-.05-1.2.56-2.032 3.406-2.032zm0-.56C1.8 1.583 0 2.039 0 4.173v38.712a3.96 3.96 0 0 0 4.016 4.016h4.016V4.173C8 1.989 6.252 1.583 4.016 1.583zm55.956.56c2.592 0 3.406.508 3.406 1.932v38.916c0 1.88-1.524 3.406-3.406 3.406h-3.406V4.073c-.05-1.474.814-1.932 3.406-1.932zm0-.56c-2.236 0-4.016.304-4.016 2.49v42.88h4.016c2.236 0 4.016-1.8 4.016-4.016V4.021c-.05-2.186-1.83-2.44-4.016-2.44z"/><path d="M59.972 46.903h-4.016V4.073c0-2.236 1.8-2.49 4.016-2.49s4.016.304 4.016 2.49v38.916a4 4 0 0 1-4.016 3.914z"/></g><path d="M42.844 46.903L.356 5.873l2.236.914 29.6 21.294L63.986 4.733v38.256a3.98 3.98 0 0 1-4.016 3.964z" fill="#221f1f" opacity=".08"/><g fill="#d44c3d"><path d="M31.921 29.433L1.729 7.529c-1.8-1.32-2.288-3.86-.966-5.64s3.86-2.186 5.692-.864l25.514 18.55L57.635.775c1.8-1.32 4.27-.914 5.59.914 1.32 1.8.914 4.27-.914 5.59z"/><path d="M59.972.617c1.068 0 2.134.508 2.796 1.424a3.5 3.5 0 0 1-.76 4.8L31.92 28.723 2.084 7.073C.56 5.953.152 3.767 1.2 2.273 1.81 1.359 2.88.799 4.046.799c.76 0 1.474.204 2.032.66l25.46 18.5.356.204.356-.204L57.89 1.173c.66-.356 1.32-.56 2.084-.56zm0-.61c-.814 0-1.68.204-2.34.76L31.968 19.573 6.404.973C5.744.465 4.88.213 4.016.213c-1.27.05-2.54.61-3.304 1.68-1.27 1.8-.76 4.27 1.016 5.59l30.192 21.95 30.39-22.16a4.04 4.04 0 0 0 .914-5.59C62.41.615 61.192.003 59.972.003z"/></g></g></symbol></svg>