<svg xmlns="http://www.w3.org/2000/svg" xmlns:xlink="http://www.w3.org/1999/xlink" viewBox="0 0 81 81" fill="#fff" fill-rule="evenodd" stroke="#000" stroke-linecap="round" stroke-linejoin="round"><use xlink:href="#A" x=".5" y=".5"/><symbol id="A" overflow="visible"><g stroke="none"><path d="M6.667 0Q0 0 0 6.667v66.667Q0 80 6.667 80h66.667Q80 80 80 73.333V6.667Q80 0 73.333 0z" fill="#00679b"/><path d="M23.351 15.5c1.495 0 2.665.486 3.515 1.452s1.306 2.186 1.367 3.648c0 1.443-.478 2.661-1.44 3.65s-2.277 1.482-3.94 1.482h-.059c-1.624 0-2.91-.495-3.868-1.482-.947-.989-1.427-2.207-1.427-3.65 0-1.484.522-2.704 1.573-3.663s2.481-1.437 4.278-1.437zm-5.222 14.283h10.263v29.714H18.129V29.783zM65.5 42.461v17.037H55.24V43.606c0-2.021-.403-3.641-1.205-4.874-.798-1.222-2.132-1.834-4.017-1.834-1.435 0-2.588.375-3.447 1.129s-1.486 1.579-1.863 2.489c-.123.33-.2.693-.241 1.098a13.12 13.12 0 0 0-.057 1.283V59.5H34.085l.068-13.823v-5.283-4.8l-.04-3.743-.028-2.069h10.324v4.208l-.057.122h.057v-.122a12.2 12.2 0 0 1 1.229-1.624c.506-.565 1.111-1.093 1.847-1.581.73-.483 1.609-.881 2.639-1.204 1.037-.318 2.216-.477 3.559-.477 1.67 0 3.23.262 4.685.788s2.698 1.351 3.758 2.475c1.054 1.118 1.88 2.509 2.481 4.172s.892 3.632.892 5.92z"/><path d="M.345 2.701l78.239 76.124c.871-.807 1.416-1.96 1.416-3.241V4.415C80 1.976 78.023 0 75.585 0H4.415C2.584 0 1.014 1.114.345 2.701z" fill-opacity=".19"/></g></symbol></svg>